<svg xmlns="http://www.w3.org/2000/svg" version="1.1" xmlns:xlink="http://www.w3.org/1999/xlink" xmlns:svgjs="http://svgjs.dev/svgjs" width="1500" height="935" viewBox="0 0 1500 935"><g transform="matrix(1,0,0,1,-0.9090909090909918,0.3785425101214628)"><svg viewBox="0 0 396 247" data-background-color="#000000" preserveAspectRatio="xMidYMid meet" height="935" width="1500" xmlns="http://www.w3.org/2000/svg" xmlns:xlink="http://www.w3.org/1999/xlink"><g id="tight-bounds" transform="matrix(1,0,0,1,0.2400000000000091,-0.09999999999999432)"><svg viewBox="0 0 395.52 247.2" height="247.2" width="395.52"><g><svg></svg></g><g><svg viewBox="0 0 395.52 247.2" height="247.2" width="395.52"><g transform="matrix(1,0,0,1,150.76293984732823,47.215199999999996)"><svg viewBox="0 0 93.99412030534351 152.7696" height="152.7696" width="93.99412030534351"><g><svg viewBox="0 0 93.99412030534351 152.7696" height="152.7696" width="93.99412030534351"><g><svg viewBox="0 0 93.99412030534351 152.7696" height="152.7696" width="93.99412030534351"><g id="textblocktransform"><svg viewBox="0 0 93.99412030534351 152.7696" height="152.7696" width="93.99412030534351" id="textblock"><g><svg viewBox="0 0 93.99412030534351 152.7696" height="152.7696" width="93.99412030534351"><g transform="matrix(1,0,0,1,0,0)"><svg width="93.99412030534351" viewBox="2.4 -32.75 20.150000000000002 32.75" height="152.7696" data-palette-color="#f00b51"><g class="wordmark-text-0" data-fill-palette-color="primary" id="text-0"><path d="M5.1 0L2.4 0 2.4-32.75 5.05-32.75 12.1-14.4 12.85-14.4 19.9-32.75 22.55-32.75 22.55 0 19.85 0 19.85-25.4 19.65-25.4 14.4-11.85 10.55-11.85 5.3-25.45 5.1-25.45 5.1 0Z" fill="#f00b51" data-fill-palette-color="primary"></path></g></svg></g></svg></g></svg></g></svg></g></svg></g></svg></g><path d="M62.456 41.215L62.456 0 309.656 0 309.656 247.2 62.456 247.2 62.456 205.985 76.233 205.985 76.233 233.423 295.879 233.423 295.879 13.777 76.233 13.777 76.233 41.215Z" fill="#f00b51" stroke="transparent" data-fill-palette-color="primary"></path></svg></g><defs></defs></svg><rect width="395.52" height="247.2" fill="none" stroke="none" visibility="hidden"></rect></g></svg></g></svg>